<svg xmlns="http://www.w3.org/2000/svg" xmlns:xlink="http://www.w3.org/1999/xlink" width="500" zoomAndPan="magnify" viewBox="0 0 375 374.999991" height="500" preserveAspectRatio="xMidYMid meet" version="1.0"><defs><clipPath id="17afe07fda"><path d="M 150 165 L 179 165 L 179 197.128906 L 150 197.128906 Z M 150 165 " clip-rule="nonzero"/></clipPath><clipPath id="feede39612"><path d="M 112.5 166 L 148 166 L 148 191 L 112.5 191 Z M 112.5 166 " clip-rule="nonzero"/></clipPath><clipPath id="16222f6e19"><path d="M 143 120.628906 L 153 120.628906 L 153 132 L 143 132 Z M 143 120.628906 " clip-rule="nonzero"/></clipPath><clipPath id="8cd1aa2273"><path d="M 234 161 L 262.5 161 L 262.5 196 L 234 196 Z M 234 161 " clip-rule="nonzero"/></clipPath></defs><rect x="-37.5" width="450" fill="#ffffff" y="-37.499999" height="449.999989" fill-opacity="1"/><rect x="-37.5" width="450" fill="#dc2f02" y="-37.499999" height="449.999989" fill-opacity="1"/><path fill="#070d2d" d="M 226.476562 132.265625 C 224.8125 134.761719 224.8125 135.003906 226.597656 135.359375 C 227.667969 135.597656 229.929688 134.40625 231.714844 132.742188 L 234.808594 129.652344 L 231.59375 129.652344 C 229.691406 129.652344 227.667969 130.722656 226.476562 132.265625 Z M 226.476562 132.265625 " fill-opacity="1" fill-rule="nonzero"/><path fill="#070d2d" d="M 194.945312 144.402344 L 194.945312 158.203125 L 197.917969 158.203125 C 200.65625 158.203125 200.890625 157.726562 200.890625 152.851562 C 200.890625 148.449219 201.246094 147.496094 203.03125 147.496094 C 204.339844 147.496094 206.125 149.402344 207.789062 152.851562 C 209.808594 157.132812 211 158.203125 213.378906 158.203125 C 217.066406 158.203125 217.066406 158.085938 213.257812 152.140625 L 210.164062 147.261719 L 212.660156 145 C 214.089844 143.691406 215.15625 141.195312 215.15625 139.289062 C 215.15625 134.058594 211.464844 131.554688 202.542969 131.078125 L 194.929688 130.601562 L 194.929688 144.402344 Z M 209.105469 137.265625 C 211.488281 140.121094 208.628906 143.925781 204.464844 143.925781 C 201.128906 143.925781 200.894531 143.570312 200.894531 139.761719 C 200.894531 135.953125 201.25 135.597656 204.34375 135.597656 C 206.25 135.597656 208.390625 136.308594 209.101562 137.261719 Z M 209.105469 137.265625 " fill-opacity="1" fill-rule="nonzero"/><path fill="#070d2d" d="M 239.441406 133.460938 C 239.796875 135.007812 240.152344 140.003906 240.152344 144.765625 C 240.152344 152.023438 240.507812 153.6875 242.769531 155.828125 C 246.101562 158.921875 253.234375 159.042969 256.925781 155.949219 C 259.542969 153.929688 259.78125 152.5 260.136719 142.269531 L 260.613281 130.847656 L 257.523438 130.847656 C 254.550781 130.847656 254.550781 130.96875 254.1875 141.792969 L 253.832031 152.855469 L 245.503906 152.855469 L 245.148438 141.792969 C 244.914062 134.496094 243.761719 130.847656 241.699219 130.847656 C 239.203125 130.847656 238.84375 131.203125 239.441406 133.464844 Z M 239.441406 133.460938 " fill-opacity="1" fill-rule="nonzero"/><path fill="#070d2d" d="M 221.359375 140.714844 C 213.386719 149.160156 224.449219 163.316406 233.730469 156.535156 C 236.945312 154.152344 234.441406 151.417969 230.757812 153.320312 C 228.972656 154.394531 227.542969 154.394531 225.878906 153.441406 C 221.714844 151.179688 223.261719 149.871094 230.046875 149.871094 C 235.875 149.871094 236.585938 149.636719 236.585938 147.375 C 236.585938 144.640625 234.445312 140.238281 232.542969 138.929688 C 229.804688 137.023438 223.859375 137.976562 221.359375 140.714844 Z M 230.402344 142.976562 C 232.78125 145.355469 232.066406 146.308594 227.664062 146.308594 C 225.402344 146.308594 223.5 145.832031 223.5 145.355469 C 223.5 143.925781 226.117188 141.550781 227.664062 141.550781 C 228.375 141.550781 229.570312 142.148438 230.402344 142.980469 Z M 230.402344 142.976562 " fill-opacity="1" fill-rule="nonzero"/><g clip-path="url(#17afe07fda)"><path fill="#070d2d" d="M 178.632812 170.613281 C 175.953125 170.613281 173.332031 170.492188 170.730469 170.632812 C 163.109375 171.042969 157.683594 175.085938 155.808594 182.46875 C 154.808594 186.390625 154.894531 190.589844 154.519531 194.671875 C 154.441406 195.519531 154.511719 196.382812 154.253906 197.257812 C 151.421875 189.339844 149.015625 181.339844 152.957031 173.066406 C 155.410156 167.914062 159.980469 165.519531 165.664062 166.027344 C 170.382812 166.453125 174.613281 168.277344 178.632812 170.613281 Z M 178.632812 170.613281 " fill-opacity="1" fill-rule="nonzero"/></g><g clip-path="url(#feede39612)"><path fill="#070d2d" d="M 146.414062 190.28125 C 145.90625 188.253906 145.550781 186.171875 144.867188 184.203125 C 141.652344 174.992188 134.6875 170.855469 124.851562 172.589844 C 120.847656 173.296875 116.972656 174.714844 112.820312 175.871094 C 118.734375 171.28125 124.785156 167.351562 132.332031 166.597656 C 140.53125 165.777344 146.460938 170.316406 147.386719 178.496094 C 147.828125 182.378906 147.289062 186.371094 147.1875 190.3125 C 146.933594 190.300781 146.675781 190.285156 146.414062 190.273438 Z M 146.414062 190.28125 " fill-opacity="1" fill-rule="nonzero"/></g><path fill="#070d2d" d="M 120.980469 130.351562 C 126.871094 134.308594 132.175781 138.515625 135.355469 144.816406 C 139.539062 153.097656 136.734375 160.914062 128.140625 164.34375 C 124.777344 165.683594 121.132812 166.316406 117.613281 167.269531 C 117.542969 167.054688 117.46875 166.839844 117.390625 166.628906 C 118.945312 165.699219 120.546875 164.839844 122.035156 163.820312 C 130.476562 158.046875 132.648438 150.023438 127.917969 140.96875 C 126.035156 137.363281 123.464844 134.109375 120.980469 130.351562 Z M 120.980469 130.351562 " fill-opacity="1" fill-rule="nonzero"/><path fill="#070d2d" d="M 170.691406 132.199219 C 169.753906 134.816406 168.566406 137.371094 167.925781 140.058594 C 166.132812 147.539062 168.496094 153.757812 175.136719 157.675781 C 179.300781 160.128906 183.996094 161.699219 188.449219 163.664062 C 180.433594 163.761719 172.351562 163.484375 165.636719 157.90625 C 160.722656 153.824219 159.394531 147.816406 162.476562 142.257812 C 164.5625 138.496094 167.484375 135.199219 170.03125 131.691406 L 170.691406 132.203125 Z M 170.691406 132.199219 " fill-opacity="1" fill-rule="nonzero"/><path fill="#070d2d" d="M 172.074219 184.445312 C 172.09375 187.09375 170.578125 188.851562 168.28125 188.839844 C 165.378906 188.824219 162.621094 185.695312 162.585938 182.382812 C 162.554688 179.789062 164.113281 178.011719 166.421875 178.007812 C 169.367188 178.007812 172.054688 181.058594 172.078125 184.445312 Z M 172.074219 184.445312 " fill-opacity="1" fill-rule="nonzero"/><path fill="#070d2d" d="M 178.855469 151.242188 C 175.90625 151.296875 173.597656 149.605469 173.507812 147.320312 C 173.402344 144.675781 176.144531 142.429688 179.542969 142.378906 C 182.609375 142.335938 184.792969 143.917969 184.878906 146.25 C 184.980469 148.894531 182.214844 151.179688 178.863281 151.242188 Z M 178.855469 151.242188 " fill-opacity="1" fill-rule="nonzero"/><path fill="#070d2d" d="M 136.136719 182.394531 C 136.089844 185.566406 133.023438 188.636719 129.882812 188.65625 C 127.464844 188.675781 125.953125 187.15625 125.976562 184.742188 C 126.015625 181.40625 129.164062 178.375 132.460938 178.503906 C 134.742188 178.597656 136.171875 180.105469 136.136719 182.394531 Z M 136.136719 182.394531 " fill-opacity="1" fill-rule="nonzero"/><path fill="#070d2d" d="M 120.300781 154.566406 C 116.871094 154.566406 113.742188 151.949219 113.738281 149.070312 C 113.738281 146.789062 115.46875 145.320312 118.160156 145.3125 C 121.640625 145.308594 124.664062 147.863281 124.675781 150.820312 C 124.683594 153.167969 123.058594 154.566406 120.292969 154.566406 Z M 120.300781 154.566406 " fill-opacity="1" fill-rule="nonzero"/><path fill="#750206" d="M 131.785156 130.101562 C 134.417969 131.953125 136.894531 134.09375 139.710938 135.601562 C 145.722656 138.808594 151.769531 138.328125 156.90625 133.890625 C 160.691406 130.625 163.835938 126.621094 166.980469 123.246094 C 165.175781 129.183594 162.738281 135.390625 157.613281 140.164062 C 151.445312 145.910156 143.6875 145.859375 138.039062 139.6875 C 135.476562 136.882812 133.566406 133.480469 131.359375 130.351562 C 131.5 130.269531 131.644531 130.183594 131.785156 130.09375 Z M 131.785156 130.101562 " fill-opacity="1" fill-rule="nonzero"/><g clip-path="url(#16222f6e19)"><path fill="#750206" d="M 143.75 126.5 C 144.160156 125.285156 144.398438 123.984375 145.007812 122.878906 C 145.921875 121.21875 147.597656 120.082031 149.351562 120.90625 C 150.632812 121.507812 151.601562 123.066406 152.347656 124.394531 C 152.757812 125.117188 152.542969 126.28125 152.394531 127.210938 C 151.976562 129.933594 149.976562 131.808594 147.765625 131.679688 C 145.46875 131.554688 144.015625 129.585938 143.75 126.496094 Z M 143.75 126.5 " fill-opacity="1" fill-rule="nonzero"/></g><path fill="#070d2d" d="M 208.625 183.648438 C 209.984375 187.214844 206.496094 191.203125 204.207031 192.792969 C 200.335938 195.503906 195.753906 195.453125 192.808594 193.90625 C 190.355469 192.628906 188.230469 189.332031 188.121094 184.972656 C 187.898438 173.699219 197.609375 164.082031 203.722656 161.792969 C 206.667969 160.679688 209.335938 160.464844 211.085938 161.953125 C 212.285156 162.960938 213.539062 164.503906 213.972656 165.835938 C 214.464844 167.378906 214.304688 168.863281 213.480469 170.511719 C 212.660156 172.164062 211.902344 174.234375 211.300781 175.777344 C 211.136719 176.203125 210.753906 176.523438 210.101562 176.097656 C 208.84375 175.300781 207.976562 173.652344 208.792969 170.996094 C 209.667969 168.179688 211.628906 165.148438 210.371094 163.871094 C 208.84375 162.277344 200.554688 166.582031 195.644531 174.507812 C 190.847656 182.269531 191.390625 190.140625 194.066406 192.265625 C 197.554688 195.027344 203.339844 191.46875 207.484375 183.546875 C 207.757812 182.957031 208.359375 182.957031 208.628906 183.648438 Z M 208.625 183.648438 " fill-opacity="1" fill-rule="nonzero"/><path fill="#070d2d" d="M 216.636719 187 C 215 189.710938 213.582031 192.316406 212.492188 194.65625 C 212.273438 195.132812 211.785156 195.132812 211.515625 194.761719 C 210.859375 193.90625 210.640625 192.316406 211.785156 189.339844 C 212.117188 188.542969 212.601562 187.476562 213.257812 186.308594 C 212.058594 185.667969 211.617188 184.875 211.457031 184.503906 C 211.183594 183.8125 211.292969 183.597656 212.109375 183.707031 C 212.875 183.8125 213.691406 183.921875 214.566406 183.972656 C 218.820312 176.742188 226.398438 166.21875 232.179688 161.589844 C 233.054688 160.898438 233.597656 160.898438 234.144531 161.644531 C 234.6875 162.386719 234.855469 162.496094 235.398438 163.824219 C 235.945312 165.101562 235.890625 166.269531 235.398438 167.707031 C 233.980469 171.90625 232.453125 177.332031 231.417969 183.179688 C 233.054688 183.710938 233.652344 184.773438 233.871094 185.890625 C 233.980469 186.367188 233.761719 186.527344 233.269531 186.367188 C 232.617188 186.207031 231.851562 186.097656 230.925781 186.046875 C 230.542969 188.808594 230.214844 191.734375 230.109375 194.550781 C 230.109375 195.078125 229.777344 195.242188 229.292969 195.027344 C 228.203125 194.550781 227.328125 193.222656 227.273438 190.191406 C 227.273438 189.128906 227.324219 187.746094 227.492188 186.152344 C 223.617188 186.417969 219.203125 187.058594 216.636719 187 Z M 227.925781 182.90625 C 228.742188 177.375 230.269531 170.679688 231.960938 166.53125 C 227.816406 171.050781 222.855469 177.484375 218.710938 183.8125 C 222.039062 183.546875 225.363281 182.964844 227.925781 182.90625 Z M 227.925781 182.90625 " fill-opacity="1" fill-rule="nonzero"/><g clip-path="url(#8cd1aa2273)"><path fill="#070d2d" d="M 242.324219 165.203125 C 242.050781 164.617188 242.160156 164.296875 242.867188 164.242188 C 247.394531 163.769531 251.480469 161.53125 255.191406 161.371094 C 257.972656 161.265625 260.375 162.113281 261.683594 165.78125 C 262.828125 168.96875 261.902344 172.058594 260.042969 174.875 C 257.316406 179.019531 251.425781 183.007812 244.28125 184.335938 C 243.023438 184.550781 241.828125 184.335938 240.898438 183.800781 C 239.371094 186.726562 237.738281 190.234375 235.828125 194.644531 C 235.609375 195.175781 235.335938 195.175781 234.953125 194.800781 C 234.191406 194.007812 233.644531 192.410156 234.460938 189.539062 C 235.882812 184.703125 241.011719 174.707031 245.75 167.421875 C 243.898438 167.207031 242.863281 166.304688 242.3125 165.1875 Z M 259.335938 166.269531 C 258.191406 163.34375 252.738281 166.113281 249.136719 167.121094 C 249.136719 168.554688 248.59375 170.417969 247.066406 172.96875 C 245.648438 175.414062 244.117188 177.863281 242.484375 180.839844 C 254.699219 178.605469 260.808594 169.996094 259.335938 166.269531 Z M 259.335938 166.269531 " fill-opacity="1" fill-rule="nonzero"/></g><path fill="#070d2d" d="M 157.945312 156.941406 C 157.945312 157.46875 157.890625 157.992188 157.789062 158.507812 C 157.6875 159.023438 157.535156 159.523438 157.332031 160.011719 C 157.132812 160.496094 156.886719 160.960938 156.59375 161.398438 C 156.300781 161.835938 155.96875 162.242188 155.59375 162.613281 C 155.222656 162.984375 154.816406 163.316406 154.378906 163.609375 C 153.941406 163.902344 153.480469 164.148438 152.996094 164.351562 C 152.507812 164.550781 152.007812 164.703125 151.492188 164.808594 C 150.972656 164.910156 150.453125 164.960938 149.925781 164.960938 C 149.398438 164.960938 148.878906 164.910156 148.363281 164.808594 C 147.84375 164.703125 147.34375 164.550781 146.859375 164.351562 C 146.371094 164.148438 145.910156 163.902344 145.472656 163.609375 C 145.035156 163.316406 144.628906 162.984375 144.257812 162.613281 C 143.882812 162.242188 143.550781 161.835938 143.257812 161.398438 C 142.96875 160.960938 142.71875 160.496094 142.519531 160.011719 C 142.316406 159.523438 142.164062 159.023438 142.0625 158.507812 C 141.960938 157.992188 141.910156 157.46875 141.910156 156.941406 C 141.910156 156.417969 141.960938 155.894531 142.0625 155.378906 C 142.164062 154.863281 142.316406 154.359375 142.519531 153.875 C 142.71875 153.386719 142.96875 152.925781 143.257812 152.488281 C 143.550781 152.050781 143.882812 151.644531 144.257812 151.273438 C 144.628906 150.902344 145.035156 150.570312 145.472656 150.277344 C 145.910156 149.984375 146.371094 149.738281 146.859375 149.535156 C 147.34375 149.335938 147.84375 149.183594 148.363281 149.078125 C 148.878906 148.976562 149.398438 148.925781 149.925781 148.925781 C 150.453125 148.925781 150.972656 148.976562 151.492188 149.078125 C 152.007812 149.183594 152.507812 149.335938 152.996094 149.535156 C 153.480469 149.738281 153.941406 149.984375 154.378906 150.277344 C 154.816406 150.570312 155.222656 150.902344 155.59375 151.273438 C 155.96875 151.644531 156.300781 152.050781 156.59375 152.488281 C 156.886719 152.925781 157.132812 153.386719 157.332031 153.875 C 157.535156 154.359375 157.6875 154.863281 157.789062 155.378906 C 157.890625 155.894531 157.945312 156.417969 157.945312 156.941406 Z M 157.945312 156.941406 " fill-opacity="1" fill-rule="nonzero"/></svg>