 <svg  version="1.0" xmlns="http://www.w3.org/2000/svg"  width="300.000000pt" height="300.000000pt" viewBox="0 0 300.000000 300.000000"  preserveAspectRatio="xMidYMid meet">  <g transform="translate(0.000000,300.000000) scale(0.100000,-0.100000)" fill="#ffffff" stroke="none"> <path d="M960 2385 c-23 -62 -5 -185 27 -185 16 0 73 114 73 146 0 25 -26 49 -63 58 -23 5 -29 3 -37 -19z m60 -51 c0 -29 -16 -64 -30 -64 -11 0 -14 73 -3 83 15 16 33 5 33 -19z"/> <path d="M646 2308 c-9 -12 -16 -32 -16 -44 0 -36 110 -123 141 -112 4 2 -5 34 -21 72 -45 105 -73 128 -104 84z"/> <path d="M885 2167 c-18 -14 -16 -15 26 -10 32 4 56 0 78 -12 18 -9 31 -19 28 -22 -3 -2 -14 0 -25 6 -46 25 -129 10 -178 -33 -33 -29 -36 -36 -45 -110 -8 -80 -33 -126 -66 -126 -26 0 -12 -27 22 -43 101 -48 224 -44 305 9 74 49 97 115 65 190 -8 19 -10 32 -5 29 19 -12 10 12 -19 52 -45 62 -145 99 -186 70z m111 -58 c4 -6 11 -6 20 2 20 16 47 -7 38 -33 -3 -10 -1 -24 4 -31 10 -13 32 -98 31 -119 0 -7 -4 -4 -9 7 -8 19 -9 19 -9 1 -1 -31 -51 -87 -95 -107 -74 -33 -225 -15 -218 27 2 10 10 26 17 34 7 8 16 42 19 75 12 108 31 131 115 144 71 10 80 10 87 0z"/> <path d="M1222 2149 c-62 -31 -101 -86 -72 -104 13 -8 146 34 160 50 17 20 -1 69 -26 73 -10 1 -38 -7 -62 -19z m58 -27 c0 -8 -58 -32 -76 -32 -5 0 2 9 16 20 25 20 60 27 60 12z"/> <path d="M668 1723 c-40 -59 -49 -103 -23 -103 22 0 86 28 107 47 36 32 14 113 -30 113 -9 0 -34 -26 -54 -57z"/> <path d="M1002 1761 c-11 -7 -10 -16 7 -49 26 -52 79 -112 97 -112 19 0 18 64 -2 123 -15 45 -18 47 -52 47 -21 0 -43 -4 -50 -9z m71 -58 c7 -39 1 -40 -18 -4 -13 26 -13 31 -1 31 7 0 16 -12 19 -27z"/> <path d="M805 1488 c-14 -21 -14 -23 1 -26 9 -2 28 8 43 22 l26 26 -27 0 c-16 0 -33 -9 -43 -22z"/> <path d="M1440 1390 l0 -120 26 0 c26 0 26 1 22 60 -5 64 7 88 37 76 11 -4 15 -22 15 -71 0 -63 1 -65 25 -65 26 0 26 0 20 72 -3 39 -11 78 -17 85 -13 17 -60 17 -77 1 -10 -11 -11 -4 -6 35 7 46 7 47 -19 47 l-26 0 0 -120z"/> <path d="M540 1386 l0 -116 25 0 c23 0 25 4 25 45 0 37 3 45 18 45 11 0 26 -16 40 -45 17 -36 27 -45 47 -45 31 0 31 1 -1 51 l-26 41 21 19 c12 11 21 32 21 48 0 44 -31 65 -106 69 l-64 4 0 -116z m119 60 c20 -24 -4 -56 -39 -56 -28 0 -30 3 -30 35 0 32 3 35 29 35 16 0 34 -6 40 -14z"/> <path d="M914 1478 c3 -13 6 -55 6 -95 0 -61 3 -75 22 -93 28 -26 88 -27 119 -1 22 17 24 29 27 115 l4 96 -26 0 c-25 0 -25 -1 -28 -92 l-3 -93 -35 0 -35 0 -3 93 c-3 92 -3 92 -29 92 -21 0 -24 -3 -19 -22z"/> <path d="M1230 1480 c0 -16 7 -20 35 -20 l35 0 0 -95 c0 -95 0 -95 25 -95 25 0 25 0 25 95 l0 95 35 0 c28 0 35 4 35 20 0 19 -7 20 -95 20 -88 0 -95 -1 -95 -20z"/> <path d="M762 1417 c-67 -71 26 -190 104 -133 27 20 6 43 -25 27 -15 -9 -27 -9 -41 -1 -35 19 -22 30 35 30 49 0 55 2 55 21 0 23 -18 60 -34 71 -23 16 -73 8 -94 -15z m76 -19 c20 -20 14 -28 -23 -28 -19 0 -35 4 -35 8 0 12 22 32 35 32 6 0 16 -5 23 -12z"/> <path d="M1643 1425 c-25 -18 -34 -57 -21 -101 25 -92 148 -63 148 36 0 66 -72 103 -127 65z m78 -39 c22 -48 -13 -103 -47 -75 -8 6 -14 26 -14 43 0 55 41 76 61 32z"/> <path d="M1800 1355 c0 -78 2 -85 20 -85 18 0 20 7 20 64 0 56 3 66 20 71 33 10 40 -3 40 -71 0 -57 2 -64 20 -64 18 0 20 7 20 73 0 80 -9 97 -50 97 -14 0 -31 -5 -38 -12 -9 -9 -12 -9 -12 0 0 7 -9 12 -20 12 -18 0 -20 -7 -20 -85z"/> <path d="M1120 1370 c0 -17 7 -20 45 -20 38 0 45 3 45 20 0 17 -7 20 -45 20 -38 0 -45 -3 -45 -20z"/> </g> </svg> 