<?xml version="1.0" encoding="UTF-8"?><svg id="Calque_1" xmlns="http://www.w3.org/2000/svg" viewBox="0 0 331.57 109.75"><defs><style>.cls-1{fill:#f08300;}.cls-2{fill:#009fe3;}</style></defs><path class="cls-2" d="M169.41,40.97c-2.39,3.58-2.39,3.92.17,4.43,1.53.34,4.77-1.36,7.33-3.75l4.43-4.43h-4.6c-2.73,0-5.62,1.53-7.33,3.75Z"/><path class="cls-2" d="M124.26,58.34v19.77h4.26c3.92,0,4.26-.68,4.26-7.67,0-6.3.51-7.67,3.07-7.67,1.87,0,4.43,2.73,6.82,7.67,2.9,6.13,4.6,7.67,8.01,7.67,5.28,0,5.28-.17-.17-8.69l-4.43-6.99,3.58-3.24c2.04-1.87,3.58-5.45,3.58-8.18,0-7.5-5.28-11.08-18.06-11.76l-10.9-.68v19.77ZM144.54,48.12c3.41,4.09-.68,9.54-6.65,9.54-4.77,0-5.11-.51-5.11-5.96s.51-5.96,4.94-5.96c2.73,0,5.79,1.02,6.82,2.39Z"/><path class="cls-1" d="M187.99,42.67c.51,2.22,1.02,9.37,1.02,16.19,0,10.39.51,12.78,3.75,15.85,4.77,4.43,14.99,4.6,20.28.17,3.75-2.9,4.09-4.94,4.6-19.59l.68-16.36h-4.43c-4.26,0-4.26.17-4.77,15.68l-.51,15.85h-11.93l-.51-15.85q-.51-15.68-4.94-15.68c-3.58,0-4.09.51-3.24,3.75Z"/><path class="cls-2" d="M162.09,53.06c-11.42,12.1,4.43,32.37,17.72,22.66,4.6-3.41,1.02-7.33-4.26-4.6-2.56,1.53-4.6,1.53-6.99.17-5.96-3.24-3.75-5.11,5.96-5.11,8.35,0,9.37-.34,9.37-3.58,0-3.92-3.07-10.22-5.79-12.1-3.92-2.73-12.44-1.36-16.02,2.56ZM175.04,56.3c3.41,3.41,2.39,4.77-3.92,4.77-3.24,0-5.96-.68-5.96-1.36,0-2.04,3.75-5.45,5.96-5.45,1.02,0,2.73.85,3.92,2.04Z"/><path class="cls-2" d="M94.26,71.59c-3.84,0-7.59-.17-11.32.03-10.91.59-18.68,6.38-21.37,16.95-1.43,5.62-1.31,11.64-1.84,17.48-.11,1.22-.02,2.45-.38,3.7-4.05-11.34-7.5-22.8-1.86-34.64,3.52-7.38,10.05-10.81,18.2-10.08,6.76.61,12.82,3.22,18.58,6.56Z"/><path class="cls-2" d="M48.12,99.75c-.73-2.9-1.24-5.88-2.22-8.7-4.6-13.19-14.58-19.12-28.66-16.63-5.73,1.01-11.29,3.05-17.23,4.7,8.47-6.57,17.14-12.2,27.94-13.28,11.74-1.17,20.24,5.32,21.57,17.04.63,5.56-.14,11.28-.28,16.92-.37-.02-.74-.04-1.11-.05Z"/><path class="cls-2" d="M11.69,13.93c8.44,5.67,16.04,11.7,20.59,20.72,5.99,11.86,1.97,23.06-10.34,27.97-4.81,1.92-10.04,2.82-15.07,4.19-.11-.31-.21-.61-.32-.92,2.22-1.33,4.52-2.56,6.66-4.02,12.09-8.26,15.2-19.76,8.42-32.73-2.7-5.17-6.38-9.83-9.94-15.21Z"/><path class="cls-2" d="M82.89,16.57c-1.34,3.75-3.04,7.41-3.96,11.26-2.56,10.71.82,19.62,10.33,25.23,5.97,3.52,12.69,5.76,19.07,8.58-11.49.14-23.06-.25-32.67-8.24-7.04-5.85-8.94-14.45-4.52-22.41,2.99-5.39,7.18-10.11,10.83-15.13l.94.73Z"/><path class="cls-1" d="M84.87,91.4c.03,3.79-2.15,6.31-5.44,6.3-4.15-.02-8.1-4.5-8.16-9.25-.04-3.72,2.19-6.26,5.49-6.26,4.22,0,8.07,4.37,8.1,9.22Z"/><path class="cls-1" d="M94.58,43.85c-4.23.08-7.53-2.35-7.66-5.62-.15-3.79,3.78-7,8.64-7.07,4.39-.06,7.52,2.21,7.64,5.55.14,3.79-3.81,7.06-8.62,7.15Z"/><path class="cls-1" d="M33.4,88.46c-.07,4.54-4.46,8.94-8.96,8.97-3.47.02-5.63-2.15-5.59-5.61.05-4.78,4.57-9.13,9.29-8.93,3.27.13,5.31,2.3,5.26,5.57Z"/><path class="cls-1" d="M10.72,48.61c-4.91,0-9.39-3.75-9.4-7.87,0-3.27,2.48-5.38,6.33-5.38,4.99,0,9.32,3.65,9.34,7.88.01,3.37-2.32,5.36-6.27,5.37Z"/><path class="cls-2" d="M27.17,13.57c3.77,2.65,7.31,5.72,11.35,7.88,8.61,4.6,17.27,3.91,24.63-2.45,5.42-4.68,9.92-10.41,14.43-15.24-2.59,8.51-6.08,17.4-13.42,24.23-8.84,8.23-19.95,8.16-28.03-.69-3.67-4.02-6.41-8.89-9.57-13.37.21-.12.41-.24.62-.36Z"/><path class="cls-1" d="M44.3,8.41c.58-1.74.93-3.61,1.8-5.19,1.31-2.38,3.71-4,6.22-2.82,1.84.86,3.22,3.09,4.3,5,.58,1.04.27,2.7.07,4.03-.6,3.9-3.46,6.58-6.64,6.4-3.29-.18-5.36-3-5.75-7.43Z"/><path class="cls-2" d="M254.86,65.74c1.95,5.1-3.05,10.81-6.33,13.1-5.55,3.88-12.11,3.81-16.33,1.6-3.51-1.83-6.56-6.55-6.72-12.79-.31-16.14,13.59-29.92,22.34-33.2,4.22-1.6,8.04-1.9,10.54.23,1.72,1.45,3.51,3.65,4.14,5.56.7,2.21.47,4.34-.7,6.7s-2.26,5.33-3.12,7.54c-.23.61-.78,1.07-1.72.46-1.8-1.14-3.05-3.5-1.87-7.31,1.25-4.04,4.06-8.38,2.26-10.2-2.19-2.28-14.06,3.88-21.09,15.23-6.87,11.12-6.09,22.38-2.26,25.43,5,3.96,13.28-1.14,19.21-12.49.39-.84,1.25-.84,1.64.15Z"/><path class="cls-2" d="M266.34,70.54c-2.34,3.88-4.37,7.61-5.94,10.96-.31.68-1.01.68-1.41.15-.94-1.22-1.25-3.5.39-7.77.47-1.14,1.17-2.67,2.11-4.34-1.72-.91-2.34-2.06-2.58-2.59-.39-.99-.23-1.29.94-1.14,1.09.15,2.26.3,3.51.38,6.09-10.36,16.95-25.43,25.23-32.06,1.25-.99,2.03-.99,2.81.08.78,1.07,1.02,1.22,1.8,3.12.78,1.83.7,3.5,0,5.56-2.03,6.01-4.22,13.78-5.7,22.16,2.34.76,3.2,2.28,3.51,3.88.16.69-.16.91-.86.69-.94-.23-2.03-.38-3.36-.46-.55,3.96-1.02,8.15-1.17,12.18,0,.76-.47.99-1.17.68-1.56-.68-2.81-2.59-2.89-6.93,0-1.52.08-3.5.31-5.79-5.55.38-11.87,1.29-15.54,1.22ZM282.51,64.67c1.17-7.92,3.36-17.51,5.78-23.45-5.94,6.47-13.04,15.69-18.98,24.75,4.76-.38,9.53-1.22,13.2-1.29Z"/><path class="cls-2" d="M303.13,39.32c-.39-.84-.23-1.29.78-1.37,6.48-.69,12.34-3.88,17.65-4.11,3.98-.15,7.42,1.07,9.29,6.32,1.64,4.57.31,8.98-2.34,13.02-3.91,5.94-12.34,11.65-22.57,13.55-1.8.3-3.51,0-4.84-.76-2.19,4.19-4.53,9.21-7.26,15.53-.31.76-.7.76-1.25.23-1.09-1.14-1.88-3.43-.7-7.54,2.03-6.93,9.37-21.24,16.17-31.67-2.66-.3-4.14-1.6-4.92-3.2ZM327.5,40.84c-1.64-4.19-9.45-.23-14.61,1.22,0,2.06-.78,4.72-2.97,8.38-2.03,3.5-4.22,7.01-6.56,11.27,17.5-3.2,26.24-15.53,24.14-20.86Z"/><circle class="cls-1" cx="52.07" cy="52.36" r="11.48"/></svg>