<?xml version="1.0" encoding="UTF-8" standalone="no"?>
<!-- Created with Inkscape (http://www.inkscape.org/) -->
<svg
   xmlns:svg="http://www.w3.org/2000/svg"
   xmlns="http://www.w3.org/2000/svg"
   version="1.0"
   width="464.10999"
   height="172.53"
   id="svg3921">
  <defs
     id="defs3923" />
  <g
     transform="translate(-265.08911,-246.09848)"
     id="layer1">
    <g
       transform="matrix(1.25,0,0,-1.25,92.297853,694.20107)"
       id="g3898">
      <path
         d="M 459.556,329.08 C 459.556,329.711 459.572,331.181 459.572,331.181 C 459.296,331.945 459.261,333.965 458.667,334.224 C 458.133,334.46 455.739,336.551 455.739,336.658 C 455.276,336.758 454.119,336.539 454.073,336.714 C 453.246,336.863 452.575,337.018 452.529,337.194 C 451.43,337.002 450.165,335.896 449.758,335.775 C 449.81,335.595 448.673,335.459 447.483,334.756 C 447.483,334.756 446.831,333.967 446.648,333.913 C 446.707,333.747 446.051,333.082 445.915,332.635 C 445.762,332.191 445.808,331.043 445.348,330.003 C 444.886,328.965 444.823,327.777 444.628,327.526 C 444.628,327.526 444.168,325.663 443.998,325.612 C 443.823,325.192 443.252,323.024 443.252,323.024 C 443.199,322.113 442.975,320.158 442.873,319.555 C 442.841,319.428 442.55,316.752 442.379,316.706 C 442.379,316.706 442.348,315.593 442.167,315.54 C 442.17,314.713 442.235,312.249 442.056,312.198 C 441.957,311.1 442.366,310.585 442.307,309.516 C 442.482,309.565 447.291,306.777 447.865,305.651 C 448.574,305.8 450.044,305.751 450.044,305.751 L 451.199,307.198 L 451.9,308.799 C 451.9,308.799 453.754,313.642 454.132,314.792 C 454.52,315.939 459.556,328.223 459.556,329.08"
         id="path2556"
         style="fill:#b1a300;fill-opacity:1;fill-rule:nonzero;stroke:none" />
      <path
         d="M 437.899,249.819 L 440.119,248.147 C 440.119,248.147 441.618,246.483 441.791,246.483 C 442.031,245.84 441.533,245.473 441.791,244.814 L 442.903,244.251 C 443.286,242.902 443.286,239.805 443.457,239.805 C 443.515,239.44 443.845,238.138 444.013,238.138 C 444.304,236.33 444.016,236.664 443.457,234.244 C 442.534,234.15 441.198,234.352 441.239,234.244 C 439.03,233.641 436.693,232.832 436.693,232.832 C 434.749,232.79 430.669,234.244 430.669,234.244 C 430.424,235.606 430.044,235.04 430.111,236.468 C 430.303,236.468 430.669,239.675 430.669,241.477 C 430.855,241.477 430.855,247.598 430.669,247.598 L 430.669,248.702 C 431.679,249.548 431.638,248.848 432.888,249.262 C 432.888,249.262 434.078,250.302 434.838,250.302 C 435.603,250.302 437.41,250.406 437.899,249.819"
         id="path2558"
         style="fill:#b1a300;fill-opacity:1;fill-rule:nonzero;stroke:none" />
      <path
         d="M 426.214,311.001 C 427.768,311.213 430.871,311.501 432.335,311.001 C 432.788,310.86 432.284,310.166 433.45,309.89 C 433.45,309.89 433.829,308.778 434.005,308.778 L 435.112,307.107 C 435.637,306.295 436.048,304.884 436.23,304.884 C 436.563,304.158 437.169,302.657 437.342,302.657 L 439.014,300.434 C 439.2,300.434 439.568,300.053 439.568,299.879 C 441.704,298.817 444.566,295.048 444.566,294.873 C 444.628,294.818 444.327,293.327 446.051,292.214 C 446.051,292.023 446.782,290.437 446.796,289.863 C 446.899,289.22 447.738,284.858 447.906,284.858 C 448.046,283.591 448.291,280.964 448.468,280.964 C 448.468,278.115 448.849,274.918 448.468,272.069 C 448.275,272.069 447.998,270.259 447.906,269.282 C 447.72,269.282 447.561,268.002 447.353,267.618 C 446.955,266.957 444.938,265.983 444.566,265.396 L 443.457,263.724 C 443.265,263.724 442.903,262.609 442.903,262.609 C 442.711,262.609 442.28,261.357 441.792,260.941 C 441.792,260.941 440.68,260.562 440.68,260.386 C 439.542,260.039 437.899,259.452 437.899,259.272 C 436.671,258.916 435.621,259.151 434.559,258.72 C 434.559,258.528 431.955,257.481 431.955,257.306 C 431.514,257.287 429.255,256.883 428.998,257.05 C 428.998,257.05 420.096,257.782 420.096,257.608 C 419.003,257.483 416.757,257.223 416.757,257.05 C 415.098,257.05 412.221,256.495 410.643,257.05 C 410.643,257.05 409.111,258.507 408.974,258.72 C 408.397,259.587 406.19,263.724 406.19,263.724 C 406.19,263.724 405.355,265.253 405.078,265.396 C 405.078,265.396 404.711,266.507 404.522,266.507 C 404.522,266.694 404.162,267.065 403.97,267.065 L 402.301,269.282 L 400.636,271.511 L 400.636,273.735 C 401.405,277.002 400.636,284.077 400.636,287.639 C 400.822,287.639 401.405,291.011 401.738,293.2 C 401.934,293.2 402.109,294.382 402.301,294.873 C 402.493,294.873 403.012,295.809 403.413,297.097 C 403.602,297.097 403.97,298.208 403.97,298.208 C 404.162,298.208 405.078,299.687 405.078,299.879 C 405.271,299.879 406.19,300.99 406.19,300.99 C 406.19,300.99 408.417,302.463 408.417,302.657 C 408.417,302.657 409.984,303.598 410.083,303.769 L 412.311,305.44 C 412.986,305.873 414.535,306.36 414.535,306.551 C 415.594,306.969 416.853,306.587 417.872,307.107 C 418.167,307.282 419.544,309.14 419.544,309.33 C 419.544,309.33 420.653,309.697 420.653,309.89 C 421.51,309.89 422.619,309.697 423.437,309.89 C 423.437,309.89 425.204,310.885 426.214,311.001"
         id="path2560"
         style="fill:#b1a300;fill-opacity:1;fill-rule:nonzero;stroke:none" />
      <path
         d="M 407.865,309.889 C 407.918,310.32 407.666,311.828 407.666,311.828 C 406.911,313.592 406.747,314.008 406.19,316.01 C 406.023,316.01 405.641,317.116 405.641,317.116 C 405.46,317.116 405.078,318.229 405.078,318.229 C 405.078,318.229 404.482,320.21 404.292,321.043 C 404.292,321.043 403.95,321.901 404.146,321.901 L 403.839,323.213 C 403.667,323.213 403.429,324.01 403.236,324.519 C 403.061,324.519 403.047,324.907 402.854,324.907 C 402.543,325.516 402.594,325.359 402.301,326.022 L 401.738,326.022 C 401.639,325.845 400.071,324.907 400.071,324.907 C 399.781,324.547 399.172,322.876 398.964,322.683 C 398.859,322.594 398.337,322.335 398.2,322.357 C 398.022,322.357 397.489,322.123 397.293,322.123 C 397.293,321.934 394.511,321.204 394.511,321.01 C 393.835,320.679 393.523,320.235 392.844,319.903 C 393.142,319.295 393.953,317.676 393.953,317.676 L 395.068,316.01 C 395.205,315.8 395.367,314.477 395.618,314.342 C 395.882,313.592 396.385,312.138 396.385,312.138 C 396.385,312.138 397.091,310.688 397.293,309.889 C 397.489,309.889 397.855,308.777 397.855,308.777 C 397.855,308.777 399.188,305.737 399.52,305.44 C 399.71,305.44 400.459,304.824 400.459,304.632 C 401.073,304.524 401.499,304.015 402.854,304.325 C 402.854,304.325 404.189,304.521 404.189,304.325 C 404.849,304.503 404.98,304.101 405.641,304.325 C 405.641,304.325 407.157,305.276 406.911,306.14 C 406.911,306.14 407.585,307.786 407.865,309.889"
         id="path2562"
         style="fill:#b1a300;fill-opacity:1;fill-rule:nonzero;stroke:none" />
      <path
         d="M 421.768,334.915 C 421.768,334.915 422.188,335.715 422.874,335.478 C 423.841,335.147 423.998,336.03 423.998,336.03 C 424.633,336.291 426.114,336.952 426.214,337.148 L 427.332,337.148 C 427.1,336.273 429.625,334.07 430.11,333.806 C 430.11,330.974 430.491,324.908 430.67,324.908 C 430.67,324.547 430.703,323.549 430.67,323.236 C 430.48,323.236 429.849,321.379 429.548,320.458 C 429.364,320.458 429.187,318.65 428.998,317.675 C 427.625,317.799 427.821,316.873 426.214,317.116 C 426.214,317.312 421.436,317.473 421.211,316.566 C 420.712,316.313 419.45,316.334 419.45,316.167 C 418.335,315.963 418.137,316.265 417.319,316.009 C 417.198,316.216 415.84,317.675 415.65,317.675 C 415.356,318.252 415.288,319.343 415.098,319.343 L 415.098,329.357 C 415.288,329.463 415.822,331.115 416.204,331.579 L 418.424,333.252 C 418.62,333.252 419.73,334.038 419.907,334.038 C 419.907,334.038 421.071,334.762 421.768,334.915"
         id="path2564"
         style="fill:#b1a300;fill-opacity:1;fill-rule:nonzero;stroke:none" />
      <path
         d="M 408.418,233.131 C 408.418,233.131 409.533,232.769 409.533,232.575 C 410.713,232.337 411.498,232.536 413.05,232.536 C 413.05,232.536 413.783,233.692 413.985,233.692 C 414.281,234.942 414.347,237.581 414.536,237.581 C 414.871,238.922 415.458,240.919 415.651,240.919 C 415.804,241.793 416.01,243.142 416.204,243.142 C 416.204,243.142 416.57,244.251 416.756,244.251 C 416.981,245.112 416.502,245.646 416.756,246.484 C 416.204,247.199 415.126,247.405 414.725,247.405 C 414.327,247.405 413.836,246.69 412.864,247.038 L 412.31,248.147 C 412.31,248.147 411.195,248.514 411.195,248.702 C 411.105,248.754 409.533,249.818 409.533,249.818 C 409.533,249.818 409.167,250.93 408.975,250.93 C 408.642,252.149 409.223,253.576 408.776,254.389 L 407.766,254.584 C 407.57,254.538 406.191,254.271 406.191,254.271 C 404.898,253.576 404.487,254.075 403.969,253.713 C 403.969,253.713 403.603,252.599 403.414,252.599 C 403.102,251.729 401.739,250.375 401.739,250.375 C 401.549,249.908 400.07,247.598 400.07,247.598 C 400.07,247.598 399.709,246.484 399.52,246.484 C 399.52,245.823 399.154,244.814 398.965,244.814 C 398.718,243.686 398.199,242.403 398.405,240.368 C 398.594,240.368 398.718,238.989 398.965,238.138 C 399.154,238.138 399.359,237.015 399.359,237.015 C 399.552,237.015 400.089,235.769 400.269,235.101 C 400.458,235.101 400.894,234.403 401.188,233.692 C 402.039,233.762 402.561,233.552 403.414,233.692 C 403.414,233.692 404.075,234.61 405.078,234.244 C 405.078,234.244 405.895,233.361 406.411,233.305 C 406.932,233.25 408.418,233.325 408.418,233.131"
         id="path2566"
         style="fill:#b1a300;fill-opacity:1;fill-rule:nonzero;stroke:none" />
      <path
         d="M 185.512,315.721 L 185.512,259.133 L 172.135,259.133 L 172.135,315.721 L 154.234,315.721 L 154.234,327.654 L 203.411,327.654 L 203.411,315.721"
         id="path2568"
         style="fill:#1b1a18;fill-opacity:1;fill-rule:nonzero;stroke:none" />
      <path
         d="M 230.225,294.315 C 228.877,297.297 226.086,299.513 221.852,299.513 C 217.618,299.513 214.828,297.297 213.48,294.315 C 212.709,292.487 212.421,291.14 212.324,288.924 L 231.382,288.924 C 231.285,291.14 230.995,292.487 230.225,294.315 M 212.324,280.361 C 212.324,273.912 216.27,269.196 223.298,269.196 C 228.781,269.196 231.474,270.737 234.652,273.912 L 242.256,266.503 C 237.153,261.402 232.246,258.612 223.201,258.612 C 211.365,258.612 200.006,263.999 200.006,284.306 C 200.006,300.666 208.859,309.905 221.852,309.905 C 235.806,309.905 243.697,299.705 243.697,285.941 L 243.697,280.361"
         id="path2570"
         style="fill:#1b1a18;fill-opacity:1;fill-rule:nonzero;stroke:none" />
      <path
         d="M 264.581,259.189 C 254.281,259.189 249.951,266.406 249.951,273.527 L 249.951,327.71 L 262.462,327.71 L 262.462,274.297 C 262.462,271.315 263.714,269.773 266.889,269.773 L 271.702,269.773 L 271.702,259.189"
         id="path2572"
         style="fill:#1b1a18;fill-opacity:1;fill-rule:nonzero;stroke:none" />
      <path
         d="M 304.615,294.315 C 303.266,297.297 300.476,299.513 296.242,299.513 C 292.007,299.513 289.214,297.297 287.87,294.315 C 287.099,292.487 286.811,291.14 286.714,288.924 L 305.769,288.924 C 305.672,291.14 305.382,292.487 304.615,294.315 M 286.714,280.361 C 286.714,273.912 290.66,269.196 297.685,269.196 C 303.171,269.196 305.864,270.737 309.039,273.912 L 316.646,266.503 C 311.543,261.402 306.635,258.612 297.588,258.612 C 285.751,258.612 274.395,263.999 274.395,284.306 C 274.395,300.666 283.249,309.905 296.242,309.905 C 310.195,309.905 318.087,299.705 318.087,285.941 L 318.087,280.361"
         id="path2574"
         style="fill:#1b1a18;fill-opacity:1;fill-rule:nonzero;stroke:none" />
      <path
         d="M 340.509,259.189 C 330.31,259.189 325.978,266.406 325.978,273.527 L 325.978,298.357 L 320.684,298.357 L 320.684,307.885 L 325.978,307.885 L 325.978,322.705 L 338.489,322.705 L 338.489,307.885 L 347.341,307.885 L 347.341,298.357 L 338.489,298.357 L 338.489,274.297 C 338.489,271.412 339.835,269.773 342.82,269.773 L 347.341,269.773 L 347.341,259.189"
         id="path2576"
         style="fill:#1b1a18;fill-opacity:1;fill-rule:nonzero;stroke:none" />
      <path
         d="M 382.66,259.189 L 382.66,289.791 C 382.66,296.432 378.425,298.646 374.479,298.646 C 370.534,298.646 366.395,296.336 366.395,289.791 L 366.395,259.189 L 353.887,259.189 L 353.887,327.71 L 366.395,327.71 L 366.395,304.708 C 369.767,308.173 373.998,309.905 378.425,309.905 C 389.398,309.905 395.17,302.206 395.17,291.622 L 395.17,259.189"
         id="path2578"
         style="fill:#1b1a18;fill-opacity:1;fill-rule:nonzero;stroke:none" />
      <path
         d="M 481.012,259.189 L 481.012,289.503 C 481.012,296.336 476.681,298.646 472.736,298.646 C 468.789,298.646 464.362,296.336 464.362,289.503 L 464.362,259.189 L 451.851,259.189 L 451.851,309.328 L 464.074,309.328 L 464.074,304.708 C 467.345,308.173 471.964,309.905 476.585,309.905 C 481.586,309.905 485.628,308.268 488.421,305.478 C 492.463,301.436 493.52,296.721 493.52,291.235 L 493.52,259.189"
         id="path2580"
         style="fill:#1b1a18;fill-opacity:1;fill-rule:nonzero;stroke:none" />
      <path
         d="M 436.147,251.105 L 438.367,249.433 C 438.367,249.433 439.866,247.771 440.039,247.771 C 440.276,247.128 439.778,246.759 440.039,246.101 L 441.151,245.538 C 441.531,244.189 441.531,241.092 441.704,241.092 C 441.76,240.726 442.092,239.426 442.258,239.426 C 442.552,237.616 442.261,237.95 441.704,235.531 C 440.779,235.437 439.446,235.639 439.487,235.531 C 437.277,234.928 434.941,234.12 434.941,234.12 C 432.997,234.077 428.917,235.531 428.917,235.531 C 428.669,236.894 428.292,236.326 428.358,237.754 C 428.551,237.754 428.917,240.961 428.917,242.763 C 429.103,242.763 429.103,248.884 428.917,248.884 L 428.917,249.99 C 429.927,250.835 429.886,250.136 431.136,250.548 C 431.136,250.548 432.326,251.59 433.086,251.59 C 433.851,251.59 435.655,251.692 436.147,251.105"
         id="path2582"
         style="fill:#ea5a93;fill-opacity:1;fill-rule:nonzero;stroke:none" />
      <path
         d="M 424.459,312.288 C 426.013,312.499 429.119,312.787 430.58,312.288 C 431.033,312.146 430.532,311.453 431.698,311.176 C 431.698,311.176 432.073,310.064 432.25,310.064 L 433.36,308.394 C 433.882,307.581 434.292,306.17 434.475,306.17 C 434.808,305.445 435.414,303.943 435.59,303.943 L 437.259,301.721 C 437.448,301.721 437.812,301.339 437.812,301.166 C 439.952,300.103 442.814,296.335 442.814,296.16 C 442.872,296.104 442.575,294.614 444.296,293.5 C 444.296,293.309 445.029,291.723 445.041,291.149 C 445.147,290.506 445.985,286.145 446.151,286.145 C 446.291,284.877 446.539,282.251 446.716,282.251 C 446.716,279.402 447.094,276.204 446.716,273.355 C 446.52,273.355 446.243,271.545 446.151,270.569 C 445.965,270.569 445.806,269.29 445.597,268.905 C 445.2,268.243 443.183,267.269 442.814,266.683 L 441.705,265.011 C 441.509,265.011 441.151,263.896 441.151,263.896 C 440.959,263.896 440.528,262.644 440.039,262.227 C 440.039,262.227 438.928,261.848 438.928,261.672 C 437.79,261.327 436.147,260.74 436.147,260.558 C 434.919,260.202 433.866,260.438 432.807,260.006 C 432.807,259.814 430.199,258.767 430.199,258.592 C 429.759,258.573 427.5,258.171 427.245,258.338 C 427.245,258.338 418.344,259.068 418.344,258.894 C 417.248,258.769 415.005,258.511 415.005,258.338 C 413.343,258.338 410.468,257.781 408.89,258.338 C 408.89,258.338 407.355,259.795 407.222,260.006 C 406.644,260.873 404.438,265.011 404.438,265.011 C 404.438,265.011 403.6,266.539 403.326,266.683 C 403.326,266.683 402.956,267.794 402.769,267.794 C 402.769,267.981 402.407,268.351 402.214,268.351 L 400.546,270.569 L 398.883,272.797 L 398.883,275.021 C 399.653,278.29 398.883,285.364 398.883,288.925 C 399.07,288.925 399.653,292.297 399.986,294.486 C 400.181,294.486 400.353,295.668 400.546,296.16 C 400.738,296.16 401.257,297.095 401.661,298.383 C 401.847,298.383 402.214,299.494 402.214,299.494 C 402.407,299.494 403.326,300.973 403.326,301.166 C 403.519,301.166 404.438,302.276 404.438,302.276 C 404.438,302.276 406.665,303.749 406.665,303.943 C 406.665,303.943 408.232,304.885 408.327,305.055 L 410.559,306.727 C 411.234,307.159 412.783,307.646 412.783,307.837 C 413.839,308.255 415.097,307.874 416.117,308.394 C 416.414,308.569 417.789,310.427 417.789,310.616 C 417.789,310.616 418.901,310.983 418.901,311.176 C 419.758,311.176 420.864,310.983 421.684,311.176 C 421.684,311.176 423.452,312.172 424.459,312.288"
         id="path2584"
         style="fill:#ffdc00;fill-opacity:1;fill-rule:nonzero;stroke:none" />
      <path
         d="M 406.11,311.175 C 406.162,311.607 405.914,313.115 405.914,313.115 C 405.155,314.879 404.995,315.294 404.438,317.296 C 404.268,317.296 403.886,318.402 403.886,318.402 C 403.704,318.402 403.326,319.515 403.326,319.515 C 403.326,319.515 402.729,321.496 402.537,322.329 C 402.537,322.329 402.198,323.187 402.391,323.187 L 402.084,324.499 C 401.912,324.499 401.676,325.296 401.481,325.805 C 401.309,325.805 401.291,326.193 401.099,326.193 C 400.787,326.802 400.84,326.645 400.545,327.308 L 399.985,327.308 C 399.884,327.132 398.315,326.193 398.315,326.193 C 398.029,325.834 397.416,324.162 397.211,323.969 C 397.103,323.88 396.585,323.621 396.448,323.643 C 396.27,323.643 395.737,323.409 395.538,323.409 C 395.538,323.22 392.759,322.49 392.759,322.296 C 392.08,321.965 391.768,321.521 391.092,321.189 C 391.389,320.581 392.197,318.962 392.197,318.962 L 393.312,317.296 C 393.449,317.086 393.612,315.763 393.863,315.628 C 394.127,314.879 394.633,313.425 394.633,313.425 C 394.633,313.425 395.336,311.974 395.538,311.175 C 395.737,311.175 396.099,310.064 396.099,310.064 C 396.099,310.064 397.436,307.024 397.765,306.726 C 397.954,306.726 398.707,306.111 398.707,305.918 C 399.317,305.81 399.747,305.301 401.099,305.611 C 401.099,305.611 402.437,305.807 402.437,305.611 C 403.095,305.789 403.224,305.387 403.886,305.611 C 403.886,305.611 405.405,306.562 405.155,307.426 C 405.155,307.426 405.833,309.073 406.11,311.175"
         id="path2586"
         style="fill:#0095d9;fill-opacity:1;fill-rule:nonzero;stroke:none" />
      <path
         d="M 457.801,330.366 C 457.801,330.998 457.82,332.467 457.82,332.467 C 457.543,333.231 457.508,335.251 456.915,335.511 C 456.38,335.746 453.986,337.838 453.986,337.944 C 453.524,338.044 452.364,337.825 452.321,338 C 451.494,338.149 450.823,338.304 450.773,338.48 C 449.677,338.288 448.409,337.182 448.002,337.061 C 448.055,336.882 446.917,336.745 445.731,336.042 C 445.731,336.042 445.075,335.253 444.892,335.199 C 444.951,335.033 444.299,334.368 444.159,333.921 C 444.006,333.478 444.056,332.329 443.596,331.289 C 443.133,330.252 443.071,329.063 442.872,328.812 C 442.872,328.812 442.416,326.949 442.242,326.899 C 442.071,326.479 441.5,324.31 441.5,324.31 C 441.444,323.399 441.22,321.444 441.118,320.841 C 441.086,320.714 440.795,318.038 440.623,317.992 C 440.623,317.992 440.593,316.879 440.411,316.826 C 440.418,315.999 440.48,313.535 440.303,313.484 C 440.202,312.387 440.61,311.871 440.551,310.802 C 440.73,310.852 445.535,308.063 446.113,306.937 C 446.822,307.086 448.289,307.037 448.289,307.037 L 449.443,308.485 L 450.148,310.085 C 450.148,310.085 452.001,314.929 452.377,316.079 C 452.765,317.225 457.801,329.509 457.801,330.366"
         id="path2588"
         style="fill:#e53139;fill-opacity:1;fill-rule:nonzero;stroke:none" />
      <path
         d="M 420.013,336.201 C 420.013,336.201 420.436,337.001 421.121,336.764 C 422.089,336.433 422.243,337.316 422.243,337.316 C 422.881,337.577 424.359,338.239 424.459,338.434 L 425.58,338.434 C 425.348,337.559 427.872,335.356 428.358,335.092 C 428.358,332.261 428.739,326.194 428.917,326.194 C 428.917,325.833 428.948,324.835 428.917,324.522 C 428.725,324.522 428.093,322.666 427.796,321.745 C 427.608,321.745 427.435,319.936 427.246,318.961 C 425.87,319.085 426.065,318.159 424.459,318.403 C 424.459,318.598 419.68,318.759 419.459,317.852 C 418.96,317.599 417.698,317.62 417.698,317.453 C 416.583,317.249 416.381,317.552 415.567,317.295 C 415.443,317.502 414.087,318.961 413.895,318.961 C 413.604,319.538 413.532,320.63 413.346,320.63 L 413.346,330.643 C 413.532,330.75 414.07,332.401 414.449,332.865 L 416.672,334.539 C 416.868,334.539 417.978,335.324 418.155,335.324 C 418.155,335.324 419.316,336.048 420.013,336.201"
         id="path2590"
         style="fill:#008d51;fill-opacity:1;fill-rule:nonzero;stroke:none" />
      <path
         d="M 406.666,234.418 C 406.666,234.418 407.778,234.057 407.778,233.861 C 408.958,233.623 409.742,233.822 411.298,233.822 C 411.298,233.822 412.031,234.978 412.23,234.978 C 412.526,236.23 412.594,238.867 412.784,238.867 C 413.119,240.21 413.703,242.205 413.896,242.205 C 414.051,243.079 414.258,244.428 414.449,244.428 C 414.449,244.428 414.818,245.537 415.004,245.537 C 415.229,246.398 414.747,246.932 415.004,247.772 C 414.449,248.486 413.371,248.691 412.973,248.691 C 412.572,248.691 412.084,247.976 411.112,248.324 L 410.558,249.433 C 410.558,249.433 409.443,249.8 409.443,249.989 C 409.353,250.042 407.778,251.105 407.778,251.105 C 407.778,251.105 407.415,252.216 407.223,252.216 C 406.887,253.435 407.471,254.862 407.021,255.675 L 406.014,255.87 C 405.818,255.824 404.439,255.557 404.439,255.557 C 403.146,254.862 402.735,255.361 402.214,255 C 402.214,255 401.848,253.885 401.662,253.885 C 401.347,253.015 399.987,251.661 399.987,251.661 C 399.797,251.195 398.315,248.884 398.315,248.884 C 398.315,248.884 397.954,247.772 397.764,247.772 C 397.764,247.11 397.402,246.1 397.212,246.1 C 396.966,244.972 396.447,243.689 396.649,241.654 C 396.842,241.654 396.966,240.275 397.212,239.426 C 397.402,239.426 397.604,238.301 397.604,238.301 C 397.796,238.301 398.337,237.055 398.514,236.387 C 398.706,236.387 399.139,235.689 399.436,234.978 C 400.284,235.048 400.806,234.838 401.662,234.978 C 401.662,234.978 402.323,235.897 403.325,235.53 C 403.325,235.53 404.14,234.649 404.658,234.592 C 405.18,234.536 406.666,234.611 406.666,234.418"
         id="path2592"
         style="fill:#8f2a82;fill-opacity:1;fill-rule:nonzero;stroke:none" />
      <path
         d="M 218.305,312.828 L 215.85,319.014 L 232.77,329.748 L 236.682,320.196"
         id="path2594"
         style="fill:#1b1a18;fill-opacity:1;fill-rule:nonzero;stroke:none" />
      <path
         d="M 292.803,312.828 L 290.349,319.014 L 307.269,329.748 L 311.18,320.196"
         id="path2596"
         style="fill:#1b1a18;fill-opacity:1;fill-rule:nonzero;stroke:none" />
    </g>
  </g>
</svg>
