<svg xmlns="http://www.w3.org/2000/svg" xmlns:xlink="http://www.w3.org/1999/xlink" width="500" zoomAndPan="magnify" viewBox="0 0 375 374.999991" height="500" preserveAspectRatio="xMidYMid meet" version="1.0"><defs><clipPath id="4e6def82a0"><path d="M 150 194 L 179 194 L 179 225.683594 L 150 225.683594 Z M 150 194 " clip-rule="nonzero"/></clipPath><clipPath id="a0a92daaa3"><path d="M 112.5 195 L 148 195 L 148 219 L 112.5 219 Z M 112.5 195 " clip-rule="nonzero"/></clipPath><clipPath id="ecf44f965c"><path d="M 143 149.183594 L 153 149.183594 L 153 161 L 143 161 Z M 143 149.183594 " clip-rule="nonzero"/></clipPath><clipPath id="8fbf5aaef0"><path d="M 234 189 L 262.5 189 L 262.5 224 L 234 224 Z M 234 189 " clip-rule="nonzero"/></clipPath></defs><rect x="-37.5" width="450" fill="#ffffff" y="-37.499999" height="449.999989" fill-opacity="1"/><rect x="-37.5" width="450" fill="#ffffff" y="-37.499999" height="449.999989" fill-opacity="1"/><path fill="#750206" d="M 226.476562 160.820312 C 224.8125 163.316406 224.8125 163.558594 226.597656 163.914062 C 227.667969 164.148438 229.929688 162.960938 231.714844 161.296875 L 234.808594 158.203125 L 231.59375 158.203125 C 229.691406 158.203125 227.667969 159.277344 226.476562 160.820312 Z M 226.476562 160.820312 " fill-opacity="1" fill-rule="nonzero"/><path fill="#750206" d="M 194.945312 172.957031 L 194.945312 186.757812 L 197.917969 186.757812 C 200.65625 186.757812 200.890625 186.28125 200.890625 181.40625 C 200.890625 177.003906 201.246094 176.050781 203.03125 176.050781 C 204.339844 176.050781 206.125 177.957031 207.789062 181.40625 C 209.808594 185.683594 211 186.757812 213.378906 186.757812 C 217.066406 186.757812 217.066406 186.636719 213.257812 180.691406 L 210.164062 175.816406 L 212.660156 173.554688 C 214.089844 172.246094 215.15625 169.75 215.15625 167.84375 C 215.15625 162.609375 211.464844 160.109375 202.542969 159.632812 L 194.929688 159.15625 L 194.929688 172.957031 Z M 209.105469 165.820312 C 211.488281 168.675781 208.628906 172.480469 204.464844 172.480469 C 201.128906 172.480469 200.894531 172.125 200.894531 168.316406 C 200.894531 164.503906 201.25 164.148438 204.34375 164.148438 C 206.25 164.148438 208.390625 164.863281 209.101562 165.8125 Z M 209.105469 165.820312 " fill-opacity="1" fill-rule="nonzero"/><path fill="#070d2d" d="M 239.441406 162.015625 C 239.796875 163.5625 240.152344 168.554688 240.152344 173.320312 C 240.152344 180.578125 240.507812 182.242188 242.769531 184.382812 C 246.101562 187.476562 253.234375 187.59375 256.925781 184.503906 C 259.542969 182.484375 259.78125 181.054688 260.136719 170.824219 L 260.613281 159.402344 L 257.523438 159.402344 C 254.550781 159.402344 254.550781 159.523438 254.1875 170.347656 L 253.832031 181.410156 L 245.503906 181.410156 L 245.148438 170.347656 C 244.914062 163.050781 243.761719 159.402344 241.699219 159.402344 C 239.203125 159.402344 238.84375 159.757812 239.441406 162.019531 Z M 239.441406 162.015625 " fill-opacity="1" fill-rule="nonzero"/><path fill="#750206" d="M 221.359375 169.269531 C 213.386719 177.714844 224.449219 191.871094 233.730469 185.089844 C 236.945312 182.707031 234.441406 179.96875 230.757812 181.875 C 228.972656 182.949219 227.542969 182.949219 225.878906 181.996094 C 221.714844 179.734375 223.261719 178.425781 230.046875 178.425781 C 235.875 178.425781 236.585938 178.191406 236.585938 175.929688 C 236.585938 173.191406 234.445312 168.792969 232.542969 167.484375 C 229.804688 165.578125 223.859375 166.53125 221.359375 169.269531 Z M 230.402344 171.527344 C 232.78125 173.910156 232.066406 174.863281 227.664062 174.863281 C 225.402344 174.863281 223.5 174.386719 223.5 173.910156 C 223.5 172.480469 226.117188 170.105469 227.664062 170.105469 C 228.375 170.105469 229.570312 170.703125 230.402344 171.535156 Z M 230.402344 171.527344 " fill-opacity="1" fill-rule="nonzero"/><g clip-path="url(#4e6def82a0)"><path fill="#750206" d="M 178.632812 199.167969 C 175.953125 199.167969 173.332031 199.046875 170.730469 199.1875 C 163.109375 199.597656 157.683594 203.640625 155.808594 211.019531 C 154.808594 214.945312 154.894531 219.144531 154.519531 223.226562 C 154.441406 224.074219 154.511719 224.9375 154.253906 225.8125 C 151.421875 217.890625 149.015625 209.894531 152.957031 201.621094 C 155.410156 196.464844 159.980469 194.074219 165.664062 194.582031 C 170.382812 195.007812 174.613281 196.832031 178.632812 199.167969 Z M 178.632812 199.167969 " fill-opacity="1" fill-rule="nonzero"/></g><g clip-path="url(#a0a92daaa3)"><path fill="#750206" d="M 146.414062 218.835938 C 145.90625 216.808594 145.550781 214.726562 144.867188 212.757812 C 141.652344 203.546875 134.6875 199.40625 124.851562 201.144531 C 120.847656 201.851562 116.972656 203.269531 112.820312 204.425781 C 118.734375 199.835938 124.785156 195.90625 132.332031 195.152344 C 140.53125 194.332031 146.460938 198.867188 147.386719 207.046875 C 147.828125 210.933594 147.289062 214.925781 147.1875 218.867188 C 146.933594 218.855469 146.675781 218.839844 146.414062 218.828125 Z M 146.414062 218.835938 " fill-opacity="1" fill-rule="nonzero"/></g><path fill="#750206" d="M 120.980469 158.90625 C 126.871094 162.863281 132.175781 167.070312 135.355469 173.371094 C 139.539062 181.652344 136.734375 189.46875 128.140625 192.898438 C 124.777344 194.238281 121.132812 194.871094 117.613281 195.824219 C 117.542969 195.609375 117.46875 195.394531 117.390625 195.183594 C 118.945312 194.253906 120.546875 193.394531 122.035156 192.375 C 130.476562 186.601562 132.648438 178.578125 127.917969 169.523438 C 126.035156 165.917969 123.464844 162.664062 120.980469 158.90625 Z M 120.980469 158.90625 " fill-opacity="1" fill-rule="nonzero"/><path fill="#750206" d="M 170.691406 160.753906 C 169.753906 163.371094 168.566406 165.921875 167.925781 168.613281 C 166.132812 176.09375 168.496094 182.308594 175.136719 186.230469 C 179.300781 188.683594 183.996094 190.253906 188.449219 192.21875 C 180.433594 192.316406 172.351562 192.039062 165.636719 186.460938 C 160.722656 182.378906 159.394531 176.371094 162.476562 170.8125 C 164.5625 167.050781 167.484375 163.75 170.03125 160.246094 L 170.691406 160.757812 Z M 170.691406 160.753906 " fill-opacity="1" fill-rule="nonzero"/><path fill="#070d2d" d="M 172.074219 213 C 172.09375 215.648438 170.578125 217.40625 168.28125 217.394531 C 165.378906 217.378906 162.621094 214.25 162.585938 210.9375 C 162.554688 208.339844 164.113281 206.566406 166.421875 206.5625 C 169.367188 206.5625 172.054688 209.613281 172.078125 213 Z M 172.074219 213 " fill-opacity="1" fill-rule="nonzero"/><path fill="#070d2d" d="M 178.855469 179.796875 C 175.90625 179.851562 173.597656 178.160156 173.507812 175.871094 C 173.402344 173.230469 176.144531 170.984375 179.542969 170.933594 C 182.609375 170.890625 184.792969 172.472656 184.878906 174.804688 C 184.980469 177.449219 182.214844 179.734375 178.863281 179.796875 Z M 178.855469 179.796875 " fill-opacity="1" fill-rule="nonzero"/><path fill="#070d2d" d="M 136.136719 210.949219 C 136.089844 214.117188 133.023438 217.191406 129.882812 217.210938 C 127.464844 217.226562 125.953125 215.710938 125.976562 213.296875 C 126.015625 209.957031 129.164062 206.929688 132.460938 207.058594 C 134.742188 207.152344 136.171875 208.660156 136.136719 210.949219 Z M 136.136719 210.949219 " fill-opacity="1" fill-rule="nonzero"/><path fill="#070d2d" d="M 120.300781 183.121094 C 116.871094 183.121094 113.742188 180.503906 113.738281 177.625 C 113.738281 175.34375 115.46875 173.875 118.160156 173.867188 C 121.640625 173.863281 124.664062 176.417969 124.675781 179.375 C 124.683594 181.722656 123.058594 183.121094 120.292969 183.121094 Z M 120.300781 183.121094 " fill-opacity="1" fill-rule="nonzero"/><path fill="#750206" d="M 131.785156 158.65625 C 134.417969 160.507812 136.894531 162.648438 139.710938 164.15625 C 145.722656 167.363281 151.769531 166.882812 156.90625 162.445312 C 160.691406 159.179688 163.835938 155.175781 166.980469 151.796875 C 165.175781 157.738281 162.738281 163.945312 157.613281 168.71875 C 151.445312 174.464844 143.6875 174.414062 138.039062 168.242188 C 135.476562 165.4375 133.566406 162.035156 131.359375 158.90625 C 131.5 158.820312 131.644531 158.738281 131.785156 158.648438 Z M 131.785156 158.65625 " fill-opacity="1" fill-rule="nonzero"/><g clip-path="url(#ecf44f965c)"><path fill="#750206" d="M 143.75 155.054688 C 144.160156 153.839844 144.398438 152.535156 145.007812 151.433594 C 145.921875 149.773438 147.597656 148.636719 149.351562 149.460938 C 150.632812 150.0625 151.601562 151.621094 152.347656 152.949219 C 152.757812 153.671875 152.542969 154.832031 152.394531 155.765625 C 151.976562 158.488281 149.976562 160.359375 147.765625 160.234375 C 145.46875 160.109375 144.015625 158.140625 143.75 155.046875 Z M 143.75 155.054688 " fill-opacity="1" fill-rule="nonzero"/></g><path fill="#750206" d="M 208.625 212.203125 C 209.984375 215.769531 206.496094 219.753906 204.207031 221.347656 C 200.335938 224.058594 195.753906 224.003906 192.808594 222.460938 C 190.355469 221.183594 188.230469 217.886719 188.121094 213.527344 C 187.898438 202.253906 197.609375 192.636719 203.722656 190.347656 C 206.667969 189.234375 209.335938 189.019531 211.085938 190.503906 C 212.285156 191.515625 213.539062 193.058594 213.972656 194.390625 C 214.464844 195.933594 214.304688 197.417969 213.480469 199.066406 C 212.660156 200.714844 211.902344 202.789062 211.300781 204.332031 C 211.136719 204.757812 210.753906 205.074219 210.101562 204.652344 C 208.84375 203.855469 207.976562 202.207031 208.792969 199.550781 C 209.667969 196.734375 211.628906 193.703125 210.371094 192.425781 C 208.84375 190.828125 200.554688 195.136719 195.644531 203.0625 C 190.847656 210.820312 191.390625 218.691406 194.066406 220.816406 C 197.554688 223.582031 203.339844 220.023438 207.484375 212.097656 C 207.757812 211.511719 208.359375 211.511719 208.628906 212.203125 Z M 208.625 212.203125 " fill-opacity="1" fill-rule="nonzero"/><path fill="#750206" d="M 216.636719 215.554688 C 215 218.265625 213.582031 220.871094 212.492188 223.210938 C 212.273438 223.6875 211.785156 223.6875 211.515625 223.3125 C 210.859375 222.460938 210.640625 220.871094 211.785156 217.890625 C 212.117188 217.097656 212.601562 216.027344 213.257812 214.863281 C 212.058594 214.222656 211.617188 213.429688 211.457031 213.058594 C 211.183594 212.367188 211.292969 212.152344 212.109375 212.261719 C 212.875 212.367188 213.691406 212.476562 214.566406 212.527344 C 218.820312 205.296875 226.398438 194.769531 232.179688 190.144531 C 233.054688 189.453125 233.597656 189.453125 234.144531 190.195312 C 234.6875 190.941406 234.855469 191.050781 235.398438 192.378906 C 235.945312 193.65625 235.890625 194.824219 235.398438 196.261719 C 233.980469 200.460938 232.453125 205.886719 231.417969 211.734375 C 233.054688 212.265625 233.652344 213.328125 233.871094 214.445312 C 233.980469 214.917969 233.761719 215.082031 233.269531 214.917969 C 232.617188 214.761719 231.851562 214.652344 230.925781 214.601562 C 230.542969 217.363281 230.214844 220.289062 230.109375 223.105469 C 230.109375 223.632812 229.777344 223.796875 229.292969 223.582031 C 228.203125 223.105469 227.328125 221.777344 227.273438 218.746094 C 227.273438 217.683594 227.324219 216.300781 227.492188 214.707031 C 223.617188 214.972656 219.203125 215.609375 216.636719 215.554688 Z M 227.925781 211.460938 C 228.742188 205.929688 230.269531 199.234375 231.960938 195.085938 C 227.816406 199.605469 222.855469 206.039062 218.710938 212.367188 C 222.039062 212.097656 225.363281 211.519531 227.925781 211.460938 Z M 227.925781 211.460938 " fill-opacity="1" fill-rule="nonzero"/><g clip-path="url(#8fbf5aaef0)"><path fill="#750206" d="M 242.324219 193.753906 C 242.050781 193.167969 242.160156 192.851562 242.867188 192.796875 C 247.394531 192.320312 251.480469 190.085938 255.191406 189.925781 C 257.972656 189.820312 260.375 190.667969 261.683594 194.335938 C 262.828125 197.523438 261.902344 200.613281 260.042969 203.425781 C 257.316406 207.570312 251.425781 211.558594 244.28125 212.890625 C 243.023438 213.105469 241.828125 212.890625 240.898438 212.355469 C 239.371094 215.28125 237.738281 218.789062 235.828125 223.199219 C 235.609375 223.726562 235.335938 223.726562 234.953125 223.355469 C 234.191406 222.5625 233.644531 220.964844 234.460938 218.089844 C 235.882812 213.253906 241.011719 203.257812 245.75 195.972656 C 243.898438 195.761719 242.863281 194.859375 242.3125 193.738281 Z M 259.335938 194.824219 C 258.191406 191.898438 252.738281 194.667969 249.136719 195.675781 C 249.136719 197.109375 248.59375 198.972656 247.066406 201.523438 C 245.648438 203.964844 244.117188 206.414062 242.484375 209.394531 C 254.699219 207.160156 260.808594 198.550781 259.335938 194.824219 Z M 259.335938 194.824219 " fill-opacity="1" fill-rule="nonzero"/></g><path fill="#750206" d="M 157.945312 185.496094 C 157.945312 186.023438 157.890625 186.542969 157.789062 187.0625 C 157.6875 187.578125 157.535156 188.078125 157.332031 188.566406 C 157.132812 189.050781 156.886719 189.515625 156.59375 189.953125 C 156.300781 190.390625 155.96875 190.792969 155.59375 191.167969 C 155.222656 191.539062 154.816406 191.871094 154.378906 192.164062 C 153.941406 192.457031 153.480469 192.703125 152.996094 192.90625 C 152.507812 193.105469 152.007812 193.257812 151.492188 193.359375 C 150.972656 193.464844 150.453125 193.515625 149.925781 193.515625 C 149.398438 193.515625 148.878906 193.464844 148.363281 193.359375 C 147.84375 193.257812 147.34375 193.105469 146.859375 192.90625 C 146.371094 192.703125 145.910156 192.457031 145.472656 192.164062 C 145.035156 191.871094 144.628906 191.539062 144.257812 191.167969 C 143.882812 190.792969 143.550781 190.390625 143.257812 189.953125 C 142.96875 189.515625 142.71875 189.050781 142.519531 188.566406 C 142.316406 188.078125 142.164062 187.578125 142.0625 187.0625 C 141.960938 186.542969 141.910156 186.023438 141.910156 185.496094 C 141.910156 184.96875 141.960938 184.449219 142.0625 183.933594 C 142.164062 183.417969 142.316406 182.914062 142.519531 182.429688 C 142.71875 181.941406 142.96875 181.480469 143.257812 181.042969 C 143.550781 180.605469 143.882812 180.199219 144.257812 179.828125 C 144.628906 179.457031 145.035156 179.121094 145.472656 178.832031 C 145.910156 178.539062 146.371094 178.292969 146.859375 178.089844 C 147.34375 177.886719 147.84375 177.734375 148.363281 177.632812 C 148.878906 177.53125 149.398438 177.480469 149.925781 177.480469 C 150.453125 177.480469 150.972656 177.53125 151.492188 177.632812 C 152.007812 177.734375 152.507812 177.886719 152.996094 178.089844 C 153.480469 178.292969 153.941406 178.539062 154.378906 178.832031 C 154.816406 179.121094 155.222656 179.457031 155.59375 179.828125 C 155.96875 180.199219 156.300781 180.605469 156.59375 181.042969 C 156.886719 181.480469 157.132812 181.941406 157.332031 182.429688 C 157.535156 182.914062 157.6875 183.417969 157.789062 183.933594 C 157.890625 184.449219 157.945312 184.96875 157.945312 185.496094 Z M 157.945312 185.496094 " fill-opacity="1" fill-rule="nonzero"/></svg>