<?xml version="1.0" encoding="UTF-8"?><svg id="Calque_1" xmlns="http://www.w3.org/2000/svg" viewBox="0 0 285.41 146.42"><defs><style>.cls-1{fill:#070d2d;}.cls-2{fill:#070d2d;}.cls-3{fill:#750206;}</style></defs><path class="cls-3" d="M217.18,22.24c-3.18,4.77-3.18,5.23.23,5.91,2.05.45,6.37-1.82,9.78-5l5.91-5.91h-6.14c-3.64,0-7.5,2.05-9.78,5Z"/><path class="cls-3" d="M156.93,45.43v26.37h5.68c5.23,0,5.68-.91,5.68-10.23,0-8.41.68-10.23,4.09-10.23,2.5,0,5.91,3.64,9.09,10.23,3.86,8.18,6.14,10.23,10.68,10.23,7.05,0,7.05-.23-.23-11.59l-5.91-9.32,4.77-4.32c2.73-2.5,4.77-7.27,4.77-10.91,0-10-7.05-14.78-24.1-15.69l-14.55-.91v26.37ZM183.99,31.79c4.55,5.46-.91,12.73-8.87,12.73-6.37,0-6.82-.68-6.82-7.96s.68-7.96,6.59-7.96c3.64,0,7.73,1.36,9.09,3.18Z"/><path class="cls-1" d="M241.95,24.52c.68,2.96,1.36,12.5,1.36,21.6,0,13.87.68,17.05,5,21.14,6.37,5.91,20,6.14,27.05.23,5-3.86,5.46-6.59,6.14-26.14l.91-21.82h-5.91c-5.68,0-5.68.23-6.37,20.91l-.68,21.14h-15.91l-.68-21.14q-.68-20.91-6.59-20.91c-4.77,0-5.46.68-4.32,5Z"/><path class="cls-3" d="M207.4,38.38c-15.23,16.14,5.91,43.19,23.64,30.23,6.14-4.55,1.36-9.78-5.68-6.14-3.41,2.05-6.14,2.05-9.32.23-7.96-4.32-5-6.82,7.96-6.82,11.14,0,12.5-.45,12.5-4.77,0-5.23-4.09-13.64-7.73-16.14-5.23-3.64-16.59-1.82-21.37,3.41ZM224.68,42.7c4.55,4.55,3.18,6.37-5.23,6.37-4.32,0-7.96-.91-7.96-1.82,0-2.73,5-7.27,7.96-7.27,1.36,0,3.64,1.14,5.23,2.73Z"/><path class="cls-3" d="M125.76,95.51c-5.12,0-10.13-.23-15.1.04-14.56.78-24.93,8.51-28.51,22.61-1.91,7.5-1.75,15.52-2.46,23.32-.15,1.62-.02,3.27-.51,4.94-5.41-15.13-10.01-30.41-2.48-46.22,4.69-9.85,13.42-14.42,24.28-13.45,9.02.81,17.1,4.3,24.78,8.76Z"/><path class="cls-3" d="M64.2,133.09c-.97-3.87-1.65-7.85-2.96-11.61-6.14-17.6-19.45-25.51-38.24-22.19-7.65,1.35-15.06,4.06-22.99,6.27,11.3-8.77,22.86-16.28,37.28-17.72,15.67-1.57,27,7.1,28.77,22.73.84,7.42-.19,15.05-.38,22.58-.49-.02-.98-.05-1.48-.07Z"/><path class="cls-3" d="M15.6,18.58c11.26,7.56,21.39,15.6,27.47,27.64,7.99,15.82,2.63,30.76-13.79,37.31-6.42,2.56-13.39,3.77-20.11,5.59-.14-.41-.28-.82-.43-1.22,2.97-1.78,6.03-3.42,8.88-5.37,16.13-11.03,20.28-26.36,11.24-43.66-3.6-6.89-8.51-13.11-13.26-20.29Z"/><path class="cls-3" d="M110.59,22.11c-1.79,5-4.06,9.88-5.29,15.02-3.42,14.29,1.09,26.17,13.78,33.66,7.96,4.69,16.93,7.69,25.44,11.44-15.32.19-30.76-.34-43.59-11-9.39-7.8-11.93-19.28-6.04-29.9,3.99-7.19,9.57-13.49,14.44-20.19l1.26.98Z"/><path class="cls-1" d="M113.23,121.94c.04,5.06-2.86,8.42-7.25,8.4-5.54-.03-10.81-6.01-10.88-12.34-.06-4.96,2.92-8.35,7.33-8.36,5.63,0,10.76,5.83,10.81,12.3Z"/><path class="cls-1" d="M126.19,58.5c-5.64.1-10.05-3.13-10.22-7.5-.2-5.05,5.04-9.34,11.53-9.44,5.86-.08,10.03,2.94,10.2,7.4.19,5.05-5.09,9.42-11.5,9.54Z"/><path class="cls-1" d="M44.56,118.02c-.09,6.06-5.95,11.93-11.95,11.97-4.62.03-7.51-2.87-7.46-7.48.07-6.38,6.09-12.17,12.39-11.92,4.36.18,7.09,3.06,7.02,7.43Z"/><path class="cls-1" d="M14.3,64.85c-6.55,0-12.53-5-12.54-10.5,0-4.36,3.31-7.17,8.45-7.18,6.65-.01,12.43,4.87,12.45,10.52.02,4.49-3.09,7.16-8.37,7.16Z"/><path class="cls-2" d="M36.25,18.1c5.03,3.54,9.76,7.63,15.14,10.51,11.49,6.13,23.04,5.21,32.86-3.27,7.23-6.24,13.24-13.89,19.25-20.34-3.45,11.35-8.11,23.21-17.9,32.33-11.79,10.98-26.61,10.88-37.4-.91-4.9-5.36-8.55-11.86-12.77-17.84.27-.16.55-.32.82-.49Z"/><path class="cls-2" d="M59.11,11.22c.78-2.32,1.24-4.81,2.4-6.92,1.75-3.17,4.95-5.34,8.3-3.77,2.45,1.15,4.3,4.13,5.73,6.67.78,1.38.37,3.6.09,5.38-.8,5.2-4.62,8.78-8.85,8.54-4.39-.24-7.16-4-7.67-9.91Z"/><path class="cls-3" d="M183.07,120.42c2.6,6.81-4.07,14.43-8.44,17.47-7.4,5.18-16.15,5.08-21.78,2.13-4.69-2.44-8.75-8.74-8.96-17.07-.42-21.54,18.13-39.92,29.81-44.29,5.63-2.13,10.73-2.54,14.07.3,2.29,1.93,4.69,4.88,5.52,7.42.94,2.95.63,5.79-.94,8.94s-3.02,7.11-4.17,10.06c-.31.81-1.04,1.42-2.29.61-2.4-1.52-4.06-4.67-2.5-9.75,1.67-5.38,5.42-11.17,3.02-13.61-2.92-3.05-18.76,5.18-28.14,20.32-9.17,14.83-8.13,29.87-3.02,33.93,6.67,5.28,17.72-1.52,25.64-16.66.52-1.12,1.67-1.12,2.19.2Z"/><path class="cls-3" d="M198.38,126.82c-3.13,5.18-5.84,10.16-7.92,14.63-.42.91-1.35.91-1.87.2-1.25-1.63-1.67-4.67.52-10.36.63-1.52,1.56-3.56,2.81-5.79-2.29-1.22-3.13-2.74-3.44-3.45-.52-1.32-.31-1.73,1.25-1.52,1.46.2,3.02.41,4.69.51,8.13-13.82,22.61-33.93,33.66-42.77,1.67-1.32,2.71-1.32,3.75.1,1.04,1.42,1.36,1.63,2.4,4.17,1.04,2.44.94,4.67,0,7.42-2.71,8.02-5.63,18.39-7.61,29.56,3.13,1.02,4.27,3.05,4.69,5.18.21.91-.21,1.22-1.15.91-1.25-.3-2.71-.51-4.48-.61-.73,5.28-1.36,10.87-1.56,16.25,0,1.01-.63,1.32-1.56.91-2.08-.91-3.75-3.45-3.86-9.24,0-2.03.1-4.67.42-7.72-7.4.51-15.84,1.73-20.74,1.62ZM219.95,119c1.56-10.57,4.48-23.36,7.71-31.29-7.92,8.64-17.4,20.93-25.32,33.02,6.36-.51,12.71-1.62,17.61-1.73Z"/><path class="cls-3" d="M247.46,85.17c-.52-1.12-.31-1.73,1.04-1.83,8.65-.91,16.46-5.18,23.55-5.49,5.31-.2,9.9,1.42,12.4,8.43,2.19,6.09.42,11.99-3.13,17.37-5.21,7.92-16.47,15.54-30.12,18.08-2.4.41-4.69,0-6.46-1.02-2.92,5.59-6.04,12.29-9.69,20.72-.42,1.01-.94,1.01-1.67.3-1.46-1.52-2.5-4.57-.94-10.06,2.71-9.24,12.51-28.34,21.57-42.26-3.54-.41-5.52-2.13-6.57-4.27ZM279.97,87.21c-2.19-5.59-12.61-.3-19.49,1.63,0,2.74-1.04,6.3-3.96,11.17-2.71,4.67-5.63,9.35-8.75,15.04,23.34-4.27,35.01-20.72,32.2-27.84Z"/><circle class="cls-3" cx="70.91" cy="69.39" r="15.32"/></svg>